<svg width="510" height="695" viewBox="0 0 510 695" fill="none" xmlns="http://www.w3.org/2000/svg">
<path d="M496.1 556.064L493.4 552.764M493.4 552.764L490.1 555.464M493.4 552.764L494.5 541.164" stroke="#C1272D" stroke-width="3" stroke-linecap="round"/>
<path d="M493.9 530.463C493.9 530.463 501.4 473.963 461.9 412.763C429.4 362.363 383 356.763 332.1 380.563C277.6 406.063 274.6 488.263 252 513.263" stroke="#99FFA5" stroke-width="30" stroke-miterlimit="10" stroke-linecap="round"/>
<path d="M494.5 537.963C498.642 537.963 502 534.606 502 530.463C502 526.321 498.642 522.963 494.5 522.963C490.358 522.963 487 526.321 487 530.463C487 534.606 490.358 537.963 494.5 537.963Z" fill="white"/>
<path d="M494.3 534.163C496.62 534.163 498.5 532.283 498.5 529.963C498.5 527.644 496.62 525.763 494.3 525.763C491.98 525.763 490.1 527.644 490.1 529.963C490.1 532.283 491.98 534.163 494.3 534.163Z" fill="#4D4D4D"/>
<path d="M497 528.863C497.994 528.863 498.8 528.058 498.8 527.063C498.8 526.069 497.994 525.263 497 525.263C496.006 525.263 495.2 526.069 495.2 527.063C495.2 528.058 496.006 528.863 497 528.863Z" fill="white"/>
<path d="M13.9 556.064L16.6 552.764M16.6 552.764L19.9 555.464M16.6 552.764L15.5 541.164" stroke="#C1272D" stroke-width="3" stroke-linecap="round"/>
<path d="M16.1 530.463C16.1 530.463 8.60001 473.963 48.1 412.763C80.6 362.363 127 356.763 177.9 380.563C232.4 406.063 235.4 488.263 258 513.263" stroke="#99FFA5" stroke-width="30" stroke-miterlimit="10" stroke-linecap="round"/>
<path d="M15.5 537.963C19.6421 537.963 23 534.606 23 530.463C23 526.321 19.6421 522.963 15.5 522.963C11.3579 522.963 8 526.321 8 530.463C8 534.606 11.3579 537.963 15.5 537.963Z" fill="white"/>
<path d="M15.3 534.163C17.6196 534.163 19.5 532.283 19.5 529.963C19.5 527.644 17.6196 525.763 15.3 525.763C12.9804 525.763 11.1 527.644 11.1 529.963C11.1 532.283 12.9804 534.163 15.3 534.163Z" fill="#4D4D4D"/>
<path d="M17.9999 528.863C18.9941 528.863 19.7999 528.058 19.7999 527.063C19.7999 526.069 18.9941 525.263 17.9999 525.263C17.0058 525.263 16.2 526.069 16.2 527.063C16.2 528.058 17.0058 528.863 17.9999 528.863Z" fill="white"/>
<path d="M252.23 89H251.83C147.63 89 63.23 177.3 62.73 286.4V288.8C63.13 355.1 90.83 509.5 130.33 599.2C153.43 651.8 191.03 657.4 252.03 657.9C312.93 657.4 350.53 651.8 373.63 599.2C413.43 508.8 441.23 352.7 441.23 287.2C441.23 177.7 356.63 89 252.23 89Z" fill="#5FB3FF"/>
<path d="M257.6 357.2C303.771 357.2 341.2 319.771 341.2 273.6C341.2 227.429 303.771 190 257.6 190C211.429 190 174 227.429 174 273.6C174 319.771 211.429 357.2 257.6 357.2Z" fill="white"/>
<ellipse cx="177.408" cy="185.567" rx="96.978" ry="49" transform="rotate(-25.5119 177.408 185.567)" fill="#5FB3FF"/>
<path d="M59.5301 148.5C67.5301 177.9 84.2301 203.7 114.73 203.7C145.23 203.7 178.03 177.9 169.93 148.5C161.23 116.8 133.53 122.8 115.83 94C91.8301 55 82.8301 0 65.2301 0C34.7301 0.1 50.2301 114.7 59.5301 148.5Z" fill="#99FFA5"/>
<path d="M286.2 259C275.4 259 266.6 250.2 266.6 239.4C266.6 235.3 267.9 231.5 270 228.4C266.3 227.5 262.4 227 258.4 227C232.2 227 211 248.2 211 274.4C211 300.6 232.2 321.8 258.4 321.8C284.6 321.8 305.8 300.6 305.8 274.4C305.8 266.6 303.9 259.3 300.6 252.8C297 256.5 291.9 259 286.2 259Z" fill="#4D4D4D"/>
<path d="M302.766 454.805C300.131 444.916 305.983 407.808 314.85 406.303C323.623 404.765 330.896 438.127 326.839 450.268C322.682 463.008 305.339 464.568 302.766 454.805Z" fill="white"/>
<path d="M343.7 465C343.7 465 312.28 455 257.85 455C203.42 455 172 468.9 172 468.9" stroke="#0071BC" stroke-width="15" stroke-miterlimit="10" stroke-linecap="round"/>
<path d="M226.1 694.4H181.5C174.1 694.4 168 689.2 168 682.9C168 676.6 174.1 671.4 181.5 671.4H226.1C233.5 671.4 239.6 676.6 239.6 682.9C239.6 689.3 233.6 694.4 226.1 694.4Z" fill="#99FFA5"/>
<path d="M328.1 694.4H283.5C276.1 694.4 270 689.2 270 682.9C270 676.6 276.1 671.4 283.5 671.4H328.1C335.5 671.4 341.6 676.6 341.6 682.9C341.6 689.3 335.6 694.4 328.1 694.4Z" fill="#99FFA5"/>
<path d="M450.93 148.5C442.83 177.9 426.23 203.7 395.73 203.7C365.23 203.7 333.63 178.2 340.53 148.5C346.93 121.1 376.93 122.8 394.63 94C418.63 55 427.63 0 445.23 0C475.63 0.1 460.13 114.7 450.93 148.5Z" fill="#99FFA5"/>
</svg>
