<svg width="510" height="695" viewBox="-48 0 510 695" fill="none" xmlns="http://www.w3.org/2000/svg">
<path d="M400.1 556.064L397.4 552.764M397.4 552.764L394.1 555.464M397.4 552.764L398.5 541.164" stroke="#C1272D" stroke-width="3" stroke-linecap="round"/>
<path d="M397.9 530.463C397.9 530.463 405.4 473.963 365.9 412.763C333.4 362.363 287 356.763 236.1 380.563C181.6 406.063 178.6 488.263 156 513.263" stroke="#99FFA5" stroke-width="30" stroke-miterlimit="10" stroke-linecap="round"/>
<path d="M398.5 537.963C402.642 537.963 406 534.606 406 530.463C406 526.321 402.642 522.963 398.5 522.963C394.358 522.963 391 526.321 391 530.463C391 534.606 394.358 537.963 398.5 537.963Z" fill="white"/>
<path d="M398.3 534.163C400.62 534.163 402.5 532.283 402.5 529.963C402.5 527.644 400.62 525.763 398.3 525.763C395.98 525.763 394.1 527.644 394.1 529.963C394.1 532.283 395.98 534.163 398.3 534.163Z" fill="#4D4D4D"/>
<path d="M401 528.863C401.994 528.863 402.8 528.058 402.8 527.063C402.8 526.069 401.994 525.263 401 525.263C400.006 525.263 399.2 526.069 399.2 527.063C399.2 528.058 400.006 528.863 401 528.863Z" fill="white"/>
<path d="M17.9 556.064L20.6 552.764M20.6 552.764L23.9 555.464M20.6 552.764L19.5 541.164" stroke="#C1272D" stroke-width="3" stroke-linecap="round"/>
<path d="M20.1 530.463C20.1 530.463 12.6 473.963 52.1 412.763C84.6 362.363 131 356.763 181.9 380.563C236.4 406.063 239.4 488.263 262 513.263" stroke="#99FFA5" stroke-width="30" stroke-miterlimit="10" stroke-linecap="round"/>
<path d="M19.5 537.963C23.6421 537.963 27 534.606 27 530.463C27 526.321 23.6421 522.963 19.5 522.963C15.3579 522.963 12 526.321 12 530.463C12 534.606 15.3579 537.963 19.5 537.963Z" fill="white"/>
<path d="M19.3 534.163C21.6196 534.163 23.5 532.283 23.5 529.963C23.5 527.644 21.6196 525.763 19.3 525.763C16.9804 525.763 15.1 527.644 15.1 529.963C15.1 532.283 16.9804 534.163 19.3 534.163Z" fill="#4D4D4D"/>
<path d="M22 528.863C22.9941 528.863 23.8 528.058 23.8 527.063C23.8 526.069 22.9941 525.263 22 525.263C21.0059 525.263 20.2 526.069 20.2 527.063C20.2 528.058 21.0059 528.863 22 528.863Z" fill="white"/>
<path d="M205.23 89H204.83C100.63 89 16.23 177.3 15.73 286.4V288.8C16.13 355.1 43.83 509.5 83.33 599.2C106.43 651.8 144.03 657.4 205.03 657.9C265.93 657.4 303.53 651.8 326.63 599.2C366.43 508.8 394.23 352.7 394.23 287.2C394.23 177.7 309.63 89 205.23 89Z" fill="#5FB3FF"/>
<path d="M210.6 357.7C256.771 357.7 294.2 320.271 294.2 274.1C294.2 227.929 256.771 190.5 210.6 190.5C164.429 190.5 127 227.929 127 274.1C127 320.271 164.429 357.7 210.6 357.7Z" fill="white"/>
<path d="M12.53 148.5C20.53 177.9 37.23 203.7 67.73 203.7C98.23 203.7 131.03 177.9 122.93 148.5C114.23 116.8 86.53 122.8 68.83 94C44.83 55 35.83 0 18.23 0C-12.27 0.1 3.23001 114.7 12.53 148.5Z" fill="#99FFA5"/>
<path d="M249.916 253.219C234.992 253.219 222.831 241.059 222.831 226.135C222.831 220.469 224.628 215.218 227.53 210.935C222.417 209.691 217.027 209 211.5 209C175.295 209 146 238.295 146 274.5C146 310.705 175.295 340 211.5 340C247.705 340 277 310.705 277 274.5C277 263.722 274.374 253.634 269.814 244.652C264.84 249.765 257.792 253.219 249.916 253.219Z" fill="#4D4D4D"/>
<path d="M217.679 467.912C217.299 457.685 231.224 422.794 240.205 423.29C249.101 423.734 248.804 457.878 242.159 468.819C235.283 480.322 218.026 478.001 217.679 467.912Z" fill="white"/>
<path d="M246 479.906C246 479.906 233.19 467 211 467C188.81 467 176 481 176 481" stroke="#0071BC" stroke-width="15" stroke-miterlimit="10" stroke-linecap="round"/>
<path d="M179.1 694.4H134.5C127.1 694.4 121 689.2 121 682.9C121 676.6 127.1 671.4 134.5 671.4H179.1C186.5 671.4 192.6 676.6 192.6 682.9C192.6 689.3 186.6 694.4 179.1 694.4Z" fill="#99FFA5"/>
<path d="M281.1 694.4H236.5C229.1 694.4 223 689.2 223 682.9C223 676.6 229.1 671.4 236.5 671.4H281.1C288.5 671.4 294.6 676.6 294.6 682.9C294.6 689.3 288.6 694.4 281.1 694.4Z" fill="#99FFA5"/>
<path d="M403.93 148.5C395.83 177.9 379.23 203.7 348.73 203.7C318.23 203.7 286.63 178.2 293.53 148.5C299.93 121.1 329.93 122.8 347.63 94C371.63 55 380.63 0 398.23 0C428.63 0.1 413.13 114.7 403.93 148.5Z" fill="#99FFA5"/>
<path d="M277 340.102C277 350.566 269.295 359.422 258.896 360.589C244.844 362.167 225.324 364 210.5 364C195.676 364 176.156 362.167 162.104 360.589C151.705 359.422 144 350.566 144 340.102V340.102C144 327.367 155.259 317.539 167.925 318.869C181.222 320.265 197.631 321.647 210.5 321.647C223.369 321.647 239.778 320.265 253.075 318.869C265.741 317.539 277 327.367 277 340.102V340.102Z" fill="#5FFFF5" fill-opacity="0.5"/>
<path d="M265 344.125C265 352.827 258.6 360.197 249.954 361.182C238.453 362.491 222.575 364 210.5 364C198.425 364 182.547 362.491 171.046 361.182C162.4 360.197 156 352.827 156 344.125V344.125C156 333.5 165.404 325.307 175.971 326.429C186.803 327.58 200.07 328.706 210.5 328.706C220.93 328.706 234.197 327.58 245.029 326.429C255.596 325.307 265 333.5 265 344.125V344.125Z" fill="#5FD9FF" fill-opacity="0.5"/>
</svg>
