<svg width="273" height="207" viewBox="0 0 273 207" fill="none" xmlns="http://www.w3.org/2000/svg">
<path d="M259.1 205.064L256.4 201.764M256.4 201.764L253.1 204.464M256.4 201.764L257.5 190.164" stroke="#C1272D" stroke-width="3" stroke-linecap="round"/>
<path d="M256.9 179.463C256.9 179.463 264.4 122.963 224.9 61.7634C192.4 11.3634 146 5.76346 95.1 29.5635C40.6 55.0635 37.6 137.263 15 162.263" stroke="#99FFA5" stroke-width="30" stroke-miterlimit="10" stroke-linecap="round"/>
<path d="M257.5 186.963C261.642 186.963 265 183.606 265 179.463C265 175.321 261.642 171.963 257.5 171.963C253.358 171.963 250 175.321 250 179.463C250 183.606 253.358 186.963 257.5 186.963Z" fill="white"/>
<path d="M257.3 183.163C259.62 183.163 261.5 181.283 261.5 178.963C261.5 176.644 259.62 174.763 257.3 174.763C254.98 174.763 253.1 176.644 253.1 178.963C253.1 181.283 254.98 183.163 257.3 183.163Z" fill="#4D4D4D"/>
<path d="M260 177.863C260.994 177.863 261.8 177.058 261.8 176.063C261.8 175.069 260.994 174.263 260 174.263C259.006 174.263 258.2 175.069 258.2 176.063C258.2 177.058 259.006 177.863 260 177.863Z" fill="white"/>
<circle cx="50" cy="50" r="20" fill="gold" transform="translate(100, -30)" class="node"/>
</svg>
