<svg width="401" height="658" viewBox="0 0 401 658" fill="none" xmlns="http://www.w3.org/2000/svg">
<path d="M189.5 89H189.1C84.9 89 0.5 177.3 0 286.4V288.8C0.4 355.1 28.1 509.5 67.6 599.2C90.7 651.8 128.3 657.4 189.3 657.9C250.2 657.4 287.8 651.8 310.9 599.2C350.7 508.8 378.5 352.7 378.5 287.2C378.5 177.7 293.9 89 189.5 89Z" fill="#5FB3FF"/>
<path d="M388.2 148.5C380.1 177.9 363.5 203.7 333 203.7C302.5 203.7 270.9 178.2 277.8 148.5C284.2 121.1 314.2 122.8 331.9 94C355.9 55 364.9 0 382.5 0C412.9 0.1 397.4 114.7 388.2 148.5Z" fill="#99FFA5"/>
</svg>
