<svg width="380" height="569" viewBox="0 0 380 569" fill="none" xmlns="http://www.w3.org/2000/svg">
<path d="M190.23 0H189.83C85.63 0 1.22998 88.3 0.72998 197.4V199.8C1.12998 266.1 28.83 420.5 68.33 510.2C91.43 562.8 129.03 568.4 190.03 568.9C250.93 568.4 288.53 562.8 311.63 510.2C351.43 419.8 379.23 263.7 379.23 198.2C379.23 88.7 294.63 0 190.23 0Z" fill="#5FB3FF"/>
<circle cx="50" cy="50" r="20" fill="gold" transform="translate(230, 20)" id="horn-right"/>
<circle cx="50" cy="50" r="20" fill="gold" transform="translate(50, 20)" id="horn-left"/>
<circle cx="50" cy="50" r="20" fill="gold" transform="translate(296, 260)" id="arm-right"/>
<circle cx="50" cy="50" r="20" fill="gold" transform="translate(-18, 260)" id="arm-left"/>
<circle cx="50" cy="50" r="20" fill="gold" transform="translate(180, 497)" id="foot-right"/>
<circle cx="50" cy="50" r="20" fill="gold" transform="translate(100, 497)" id="foot-left"/>
<circle cx="50" cy="50" r="20" fill="gold" transform="translate(140, 130)" id="eyes"/>
<circle cx="50" cy="50" r="20" fill="gold" transform="translate(140, 280)" id="mouth"/>
</svg>
