<svg width="510" height="695" viewBox="0 0 510 695" fill="none" xmlns="http://www.w3.org/2000/svg">
<path d="M496.1 556.063L493.4 552.763M493.4 552.763L490.1 555.463M493.4 552.763L494.5 541.163" stroke="#C1272D" stroke-width="3" stroke-linecap="round"/>
<path d="M493.9 530.463C493.9 530.463 501.4 473.963 461.9 412.763C429.4 362.363 383 356.763 332.1 380.563C277.6 406.063 274.6 488.263 252 513.263" stroke="#99FFA5" stroke-width="30" stroke-miterlimit="10" stroke-linecap="round"/>
<path d="M494.5 537.963C498.642 537.963 502 534.606 502 530.463C502 526.321 498.642 522.963 494.5 522.963C490.358 522.963 487 526.321 487 530.463C487 534.606 490.358 537.963 494.5 537.963Z" fill="white"/>
<path d="M494.3 534.163C496.62 534.163 498.5 532.283 498.5 529.963C498.5 527.644 496.62 525.763 494.3 525.763C491.98 525.763 490.1 527.644 490.1 529.963C490.1 532.283 491.98 534.163 494.3 534.163Z" fill="#4D4D4D"/>
<path d="M497 528.863C497.994 528.863 498.8 528.058 498.8 527.063C498.8 526.069 497.994 525.263 497 525.263C496.006 525.263 495.2 526.069 495.2 527.063C495.2 528.058 496.006 528.863 497 528.863Z" fill="white"/>
<path d="M13.9 556.063L16.6 552.763M16.6 552.763L19.9 555.463M16.6 552.763L15.5 541.163" stroke="#C1272D" stroke-width="3" stroke-linecap="round"/>
<path d="M16.1 530.463C16.1 530.463 8.60001 473.963 48.1 412.763C80.6 362.363 127 356.763 177.9 380.563C232.4 406.063 235.4 488.263 258 513.263" stroke="#99FFA5" stroke-width="30" stroke-miterlimit="10" stroke-linecap="round"/>
<path d="M15.5 537.963C19.6421 537.963 23 534.606 23 530.463C23 526.321 19.6421 522.963 15.5 522.963C11.3579 522.963 8 526.321 8 530.463C8 534.606 11.3579 537.963 15.5 537.963Z" fill="white"/>
<path d="M15.3 534.163C17.6196 534.163 19.5 532.283 19.5 529.963C19.5 527.644 17.6196 525.763 15.3 525.763C12.9804 525.763 11.1 527.644 11.1 529.963C11.1 532.283 12.9804 534.163 15.3 534.163Z" fill="#4D4D4D"/>
<path d="M18 528.863C18.9941 528.863 19.8 528.058 19.8 527.063C19.8 526.069 18.9941 525.263 18 525.263C17.0059 525.263 16.2 526.069 16.2 527.063C16.2 528.058 17.0059 528.863 18 528.863Z" fill="white"/>
<path d="M252.23 89H251.83C147.63 89 63.23 177.3 62.73 286.4V288.8C63.13 355.1 90.83 509.5 130.33 599.2C153.43 651.8 191.03 657.4 252.03 657.9C312.93 657.4 350.53 651.8 373.63 599.2C413.43 508.8 441.23 352.7 441.23 287.2C441.23 177.7 356.63 89 252.23 89Z" fill="#5FB3FF"/>
<path d="M257.6 357.7C303.771 357.7 341.2 320.271 341.2 274.1C341.2 227.929 303.771 190.5 257.6 190.5C211.429 190.5 174 227.929 174 274.1C174 320.271 211.429 357.7 257.6 357.7Z" fill="white"/>
<ellipse cx="258.204" cy="387.914" rx="77" ry="49" transform="rotate(-1.43598 258.204 387.914)" fill="#5FB3FF"/>
<path d="M59.53 148.5C67.53 177.9 84.23 203.7 114.73 203.7C145.23 203.7 178.03 177.9 169.93 148.5C161.23 116.8 133.53 122.8 115.83 94C91.83 55 82.83 0 65.23 0C34.73 0.1 50.23 114.7 59.53 148.5Z" fill="#99FFA5"/>
<path d="M286.2 259C275.4 259 266.6 250.2 266.6 239.4C266.6 235.3 267.9 231.5 270 228.4C266.3 227.5 262.4 227 258.4 227C232.2 227 211 248.2 211 274.4C211 300.6 232.2 321.8 258.4 321.8C284.6 321.8 305.8 300.6 305.8 274.4C305.8 266.6 303.9 259.3 300.6 252.8C297 256.5 291.9 259 286.2 259Z" fill="#4D4D4D"/>
<path d="M297.679 458.912C297.299 448.685 311.224 413.794 320.205 414.29C329.101 414.734 328.804 448.878 322.159 459.819C315.284 471.322 298.026 469.001 297.679 458.912Z" fill="white"/>
<path d="M343.7 487C343.7 487 312.28 455 257.85 455C203.42 455 172 490.9 172 490.9" stroke="#0071BC" stroke-width="15" stroke-miterlimit="10" stroke-linecap="round"/>
<path d="M226.1 694.4H181.5C174.1 694.4 168 689.2 168 682.9C168 676.6 174.1 671.4 181.5 671.4H226.1C233.5 671.4 239.6 676.6 239.6 682.9C239.6 689.3 233.6 694.4 226.1 694.4Z" fill="#99FFA5"/>
<path d="M328.1 694.4H283.5C276.1 694.4 270 689.2 270 682.9C270 676.6 276.1 671.4 283.5 671.4H328.1C335.5 671.4 341.6 676.6 341.6 682.9C341.6 689.3 335.6 694.4 328.1 694.4Z" fill="#99FFA5"/>
<path d="M450.93 148.5C442.83 177.9 426.23 203.7 395.73 203.7C365.23 203.7 333.63 178.2 340.53 148.5C346.93 121.1 376.93 122.8 394.63 94C418.63 55 427.63 0 445.23 0C475.63 0.1 460.13 114.7 450.93 148.5Z" fill="#99FFA5"/>
<path d="M167.888 184.394C153.566 197.671 140.055 211.863 126.434 225.847C112.266 240.393 97.3341 254.832 84.8498 270.908C84.5805 271.255 79.5926 277.897 83.8504 274.862C98.1726 264.654 110.833 251.527 124.261 240.23C154.283 214.974 185.467 191.312 217.685 168.924C251.021 145.76 285.71 124.467 317.887 99.6609C319.803 98.1832 326.682 92.8024 329.097 90.1882C330.689 88.4648 324.866 92.3725 323.188 94.012C299.158 117.488 279.48 145.798 257.922 171.445C228.634 206.288 197.625 239.29 165.368 271.386C143.365 293.277 118.474 314.205 99.6672 339.085C89.5596 352.457 110.431 332.28 110.965 331.785C141.827 303.204 173.532 275.537 206.604 249.529C241.212 222.313 277.201 196.777 314.15 172.835C318.477 170.031 322.526 166.472 327.446 164.927C331.981 163.503 322.799 173.276 319.798 176.963C290.706 212.719 259.62 246.844 230.199 282.336C200.552 318.1 169.51 354.112 144.641 393.488C142.053 397.585 131.042 414.327 145.032 405.655C152.56 400.988 161.826 393.758 168.453 388.665C190.527 371.698 212.278 354.297 234.023 336.912C265.4 311.827 297.842 287.423 327.446 260.219C334.003 254.193 331.862 255.933 336.571 251.224C338.215 249.58 339.492 248.608 337.44 251.571C329.293 263.339 319.499 274.152 310.152 284.943C285.253 313.691 258.444 340.588 232.98 368.807C223.477 379.338 216.782 387.017 208.516 398.224C203.429 405.121 196.923 413.778 194.307 422.254C193.799 423.899 193.962 425.703 196.306 424.774C207.093 420.495 218.234 410.135 227.027 403.352C252.811 383.459 278.182 362.986 303.721 342.779C322.925 327.584 343.331 312.655 358.124 292.851C358.852 291.876 360.685 288.805 360.383 289.984C358.927 295.677 352.65 303.875 349.868 308.103C327.381 342.273 299.362 372.124 272.087 402.439C244.141 433.501 216.104 464.795 194.133 500.512C190.388 506.601 186.508 513.203 183.835 519.935C182.256 523.912 182.023 527.091 187.094 524.367C191.201 522.161 200.721 515.144 203.606 513.07C221.126 500.474 238.706 488.093 256.792 476.309C281.308 460.335 307.697 446.146 330.14 427.207C332.443 425.264 334.442 422.98 336.745 421.037C337.37 420.509 336.263 422.63 335.789 423.296C320.19 445.207 297.809 462.396 277.519 479.611C243.086 508.825 207.057 537.114 177.013 571.035C171.405 577.367 145.424 607.96 172.364 602.799C183.272 600.71 195.728 595.646 205.648 591.545C221.508 584.989 235.594 578.824 250.1 569.471C264.757 560.021 274.122 552.135 284.993 538.794C288.04 535.054 301.667 516.059 284.776 523.411C257.31 535.366 234.555 558.913 216.555 582.116C207.438 593.868 200.823 603.584 193.612 616.53C186.522 629.26 178.442 644.855 178.23 659.94C178.006 675.799 191.747 680.266 205.257 679.406C235.37 677.491 265.463 661.097 289.425 643.862C292.781 641.448 323.979 619.501 313.454 610.838C310.513 608.417 302.649 609.097 300.071 609.448C283.494 611.7 267.078 617.821 251.925 624.613C224.936 636.709 195.094 652.838 174.667 674.8C174.436 675.048 168.145 682.393 168.931 684.881C169.233 685.838 170.803 685.92 171.799 685.794C177.455 685.081 187.831 679.044 191.265 677.147C234.667 653.172 276.195 624.514 316.496 595.717C327.672 587.731 343.991 575.773 354.213 565.821C360.038 560.15 373.718 546.812 370.508 536.621C368.573 530.48 361.381 529.159 356.255 528.104C345.145 525.818 334.848 526.012 323.492 526.67C285.269 528.885 247.282 537.95 210.993 549.831C203.123 552.407 197.477 554.609 190.049 557.478C189.163 557.82 188.333 558.356 187.398 558.521C184.411 559.048 192.688 555.547 195.393 554.176C235.901 533.65 278.013 516.354 319.538 498.035C349.3 484.905 380.986 473.021 409.224 456.668C410.605 455.868 415.952 452.447 409.919 453.366C388.712 456.594 366.897 464.653 346.435 470.356C277.59 489.542 208.291 506.862 139.209 525.149C125.311 528.829 107.465 533.588 93.2362 538.185C91.081 538.882 88.925 539.62 86.8921 540.619C82.8545 542.602 95.6124 538.377 99.8845 536.969C148.37 520.979 196.501 503.66 244.234 485.564C279.473 472.205 306.6 461.495 341.221 446.978C354.677 441.336 368.11 435.632 381.414 429.64C388.367 426.509 417.19 413.258 426.258 406.697C431.253 403.084 432.574 399.172 425.128 398.094C419.221 397.239 413.191 397.604 407.225 397.79C383.156 398.538 356.717 401.439 333.182 404.221C247.468 414.353 161.541 427.906 77.5063 447.804C67.9128 450.075 52.5731 454.083 42.3097 457.624C41.5437 457.888 39.373 458.865 40.1805 458.797C47.0593 458.224 53.3592 454.674 59.8646 452.366C111.861 433.92 164.037 415.624 215.338 395.313C228.489 390.106 245.775 382.974 258.878 376.541C259.07 376.447 276.599 368.59 276.476 364.896C276.349 361.072 257.24 370.891 256.271 371.327" stroke="#FF0000" stroke-width="3" stroke-linecap="round"/>
</svg>
