<svg width="168" height="168" viewBox="0 0 168 168" fill="none" xmlns="http://www.w3.org/2000/svg">
<path d="M83.6 167.7C129.771 167.7 167.2 130.271 167.2 84.1C167.2 37.929 129.771 0.5 83.6 0.5C37.429 0.5 0 37.929 0 84.1C0 130.271 37.429 167.7 83.6 167.7Z" fill="white"/>
<path d="M112.2 69C101.4 69 92.6 60.2 92.6 49.4C92.6 45.3 93.9 41.5 96 38.4C92.3 37.5 88.4 37 84.4 37C58.2 37 37 58.2 37 84.4C37 110.6 58.2 131.8 84.4 131.8C110.6 131.8 131.8 110.6 131.8 84.4C131.8 76.6 129.9 69.3 126.6 62.8C123 66.5 117.9 69 112.2 69Z" fill="#4D4D4D"/>
<circle cx="50" cy="50" r="20" transform="translate(35, 35)" class="node"/>
</svg>
