<svg viewBox="0 0 168 168" fill="none" xmlns="http://www.w3.org/2000/svg">
<path d="M83.5 167.2C129.616 167.2 167 129.771 167 83.6C167 37.429 129.616 0 83.5 0C37.3842 0 0 37.429 0 83.6C0 129.771 37.3842 167.2 83.5 167.2Z" fill="white"/>
<path d="M161 191.5C161 218.562 126.526 240.5 84 240.5C41.4741 240.5 7 218.562 7 191.5C7 164.438 41.4741 142.5 84 142.5C126.526 142.5 161 164.438 161 191.5Z" fill="#5FB3FF"/>
<path d="M112.066 68.5C101.279 68.5 92.4893 59.7 92.4893 48.9C92.4893 44.8 93.7877 41 95.8852 37.9C92.1896 37 88.2943 36.5 84.2991 36.5C58.1305 36.5 36.9558 57.7 36.9558 83.9C36.9558 110.1 58.1305 131.3 84.2991 131.3C110.468 131.3 131.642 110.1 131.642 83.9C131.642 76.1 129.745 68.8 126.449 62.3C122.853 66 117.759 68.5 112.066 68.5Z" fill="#4D4D4D"/>
</svg>
