<svg width="168" height="168" viewBox="0 0 168 168" fill="none" xmlns="http://www.w3.org/2000/svg">
<path d="M83.87 167.7C130.041 167.7 167.47 130.271 167.47 84.1C167.47 37.929 130.041 0.5 83.87 0.5C37.699 0.5 0.27002 37.929 0.27002 84.1C0.27002 130.271 37.699 167.7 83.87 167.7Z" fill="white"/>
<path d="M112.47 69C101.67 69 92.87 60.2 92.87 49.4C92.87 45.3 94.17 41.5 96.27 38.4C92.57 37.5 88.67 37 84.67 37C58.47 37 37.27 58.2 37.27 84.4C37.27 110.6 58.47 131.8 84.67 131.8C110.87 131.8 132.07 110.6 132.07 84.4C132.07 76.6 130.17 69.3 126.87 62.8C123.27 66.5 118.17 69 112.47 69Z" fill="#4D4D4D"/>
</svg>
