<svg viewBox="0 0 199 115" fill="none" xmlns="http://www.w3.org/2000/svg">
<mask id="mask0_454_167" style="mask-type:alpha" maskUnits="userSpaceOnUse" x="6" y="23" width="185" height="86">
<path fill-rule="evenodd" clip-rule="evenodd" d="M180.518 49.4662C188.055 47.784 194.136 56.5047 188.961 62.9735C181.589 72.1877 149.448 108.508 98.5001 108.508C47.8706 108.508 16.3097 75.5391 8.90027 66.9247C3.30282 60.4169 9.55523 51.9775 16.6485 53.0977C27.8506 54.8669 75.0872 24.6238 103.5 24.0001C131.875 23.3772 169.92 51.8313 180.518 49.4662Z" fill="#0071BC"/>
</mask>
<g mask="url(#mask0_454_167)">
<path d="M203.988 81.2299C207.011 92.4269 176.239 110.475 135.256 121.541C94.2733 132.608 58.599 132.502 55.5755 121.305C52.5521 110.108 83.3243 92.0601 124.307 80.9937C165.29 69.9272 200.964 70.033 203.988 81.2299Z" fill="#A96969"/>
<path d="M144.963 95.2358C139.263 86.7358 132.763 49.7358 140.663 45.4358C148.463 41.1358 166.163 70.3358 166.263 83.1358C166.463 96.5358 150.563 103.636 144.963 95.2358Z" fill="white"/>
</g>
<path fill-rule="evenodd" clip-rule="evenodd" d="M166.189 23.2762C176.97 27.2325 187.808 33.6172 190.735 44.7221C192.686 52.1292 191.991 59.186 188.961 62.9735C181.589 72.1877 149.448 108.508 98.5 108.508C47.8705 108.508 16.3097 75.5391 8.90024 66.9246C4.9654 62.3499 7.60033 52.1371 11.2498 44.042C13.8968 38.1704 18.931 33.8853 24.6682 30.9584C45.1913 20.4882 73.8008 8.04218 98.5 7.49998C118.681 7.05696 147.578 16.4465 166.189 23.2762Z" stroke="#0071BC" stroke-width="13" stroke-miterlimit="10" stroke-linecap="round"/>
</svg>
