<svg viewBox="0 0 198 85" fill="none" xmlns="http://www.w3.org/2000/svg">
<path fill-rule="evenodd" clip-rule="evenodd" d="M174.518 25.4661C182.055 23.784 188.136 32.5047 182.961 38.9735C175.589 48.1876 143.448 84.5075 92.5001 84.5075C41.8706 84.5075 10.3097 51.5391 2.90027 42.9246C-2.69718 36.4168 3.55523 27.9774 10.6485 29.0977C21.8506 30.8668 66.9227 37.633 95.3354 37.0093C123.71 36.3864 163.92 27.8313 174.518 25.4661Z" fill="#0071BC"/>
<mask id="mask0_1_75" style="mask-type:alpha" maskUnits="userSpaceOnUse" x="0" y="-1" width="185" height="86">
<path fill-rule="evenodd" clip-rule="evenodd" d="M174.518 25.4662C182.055 23.784 188.136 32.5047 182.961 38.9735C175.589 48.1877 143.448 84.5076 92.5001 84.5076C41.8706 84.5076 10.3097 51.5391 2.90027 42.9247C-2.69718 36.4169 3.55523 27.9775 10.6485 29.0977C21.8506 30.8669 69.0872 0.623789 97.5 6.10352e-05C125.875 -0.622839 163.92 27.8313 174.518 25.4662Z" fill="#0071BC"/>
</mask>
<g mask="url(#mask0_1_75)">
<path d="M197.988 57.2299C201.011 68.4269 170.239 86.475 129.256 97.5414C88.2733 108.608 52.599 108.502 49.5755 97.3051C46.5521 86.1082 77.3243 68.0601 118.307 56.9937C159.29 45.9272 194.964 46.033 197.988 57.2299Z" fill="#A96969"/>
<path d="M138.963 71.2358C133.263 62.7358 126.763 25.7358 134.663 21.4358C142.463 17.1358 160.163 46.3358 160.263 59.1358C160.463 72.5358 144.563 79.6358 138.963 71.2358Z" fill="white"/>
</g>
</svg>
