<svg viewBox="0 0 99 90" fill="none" xmlns="http://www.w3.org/2000/svg">
<path d="M26.6661 89.7433C15.004 90.2806 5.0447 81.3357 4.50324 69.7572L2.26516 24.5591C1.7237 12.9806 10.7329 3.09285 22.395 2.55556C34.0571 2.01827 44.0165 10.9632 44.5579 22.5417L46.796 67.7399C47.3375 79.3184 38.3283 89.1363 26.6661 89.7433Z" fill="white"/>
<mask id="mask0_437_632" style="mask-type:alpha" maskUnits="userSpaceOnUse" x="2" y="2" width="45" height="88">
<path d="M26.6642 89.7433C15.0021 90.2806 5.04275 81.3357 4.50129 69.7572L2.26321 24.5591C1.72175 12.9806 10.731 3.09285 22.3931 2.55556C34.0552 2.01827 44.0145 10.9632 44.556 22.5417L46.794 67.7399C47.3355 79.3184 38.3264 89.1363 26.6642 89.7433Z" fill="white"/>
</mask>
<g mask="url(#mask0_437_632)">
<path d="M35.1195 35.9157C30.6233 36.117 26.7657 32.6927 26.4928 28.1589C26.4247 26.9033 26.7079 25.6484 27.1314 24.5333C26.0781 24.3222 25.0245 24.2506 23.9005 24.2486C16.8751 24.5849 11.4556 30.5035 11.7945 37.4785L13.1513 64.6114C13.4902 71.5864 19.4517 76.9673 26.4771 76.631C33.5025 76.2947 38.922 70.3761 38.5832 63.4011L37.2263 36.2682C37.2268 35.9892 37.1569 35.7799 37.1574 35.5009C36.5248 35.709 35.8221 35.8472 35.1195 35.9157Z" fill="#4D4D4D"/>
</g>
<path d="M76.965 87.2518C65.3029 87.789 55.3435 78.8441 54.8021 67.2656L52.564 22.0674C52.0225 10.4889 61.0318 0.601237 72.6939 0.0639524C84.356 -0.473333 94.3153 8.47158 94.8567 20.0501L97.0948 65.2483C97.6362 76.8965 88.6973 86.7146 76.965 87.2518Z" fill="white"/>
<mask id="mask1_437_632" style="mask-type:alpha" maskUnits="userSpaceOnUse" x="52" y="0" width="46" height="88">
<path d="M76.965 87.2518C65.3029 87.789 55.3435 78.8441 54.8021 67.2656L52.564 22.0674C52.0225 10.4889 61.0318 0.601237 72.6939 0.0639524C84.356 -0.473333 94.3153 8.47158 94.8567 20.0501L97.0948 65.2483C97.6362 76.8965 88.6973 86.7146 76.965 87.2518Z" fill="white"/>
</mask>
<g mask="url(#mask1_437_632)">
<path d="M85.4896 33.4242C80.9934 33.6254 77.1358 30.2011 76.8629 25.6673C76.7949 24.4118 77.0781 23.1569 77.5015 22.0417C76.4482 21.8306 75.3946 21.759 74.2706 21.757C67.2453 22.0933 61.8257 28.0119 62.1646 34.9869L63.5214 62.1198C63.8603 69.0948 69.8218 74.4757 76.8472 74.1394C83.8726 73.8032 89.2922 67.8845 88.9533 60.9095L87.5964 33.7766C87.5969 33.4977 87.527 33.2883 87.5275 33.0093C86.8948 33.2872 86.1921 33.4254 85.4896 33.4242Z" fill="#4D4D4D"/>
</g>
</svg>
