<svg xmlns="http://www.w3.org/2000/svg" width="117" height="117" viewBox="0 0 117 117" fill="none">
  <g clip-path="url(#clip0_1_366)">
    <path d="M84.2778 58.75V65.1944H43.333C40.5393 65.1944 37.4202 68.0816 36.3698 71.6389L24.9567 110.306C23.9062 113.863 25.9427 116.75 29.5 116.75H87.5C89.2092 116.75 90.8483 116.071 92.0569 114.862C93.2655 113.654 93.9444 112.015 93.9444 110.306V78.0833C93.9496 75.2328 94.902 72.4648 96.6518 70.2145C98.4016 67.9642 100.85 66.3593 103.611 65.652V58.75H84.2778Z" fill="#AAB8C2"/>
    <path d="M71.3889 71.2361C71.3889 82.5816 56.9598 94.1944 39.1667 94.1944C21.3703 94.1944 6.94446 82.5816 6.94446 71.2361C6.94446 65.1944 9.62857 65.1944 39.1667 65.1944C68.7016 65.1944 71.3889 65.1944 71.3889 71.2361ZM81.0556 61.9722C81.0556 63.7541 79.3994 65.1944 77.35 65.1944H10.65C8.6039 65.1944 6.94446 63.7541 6.94446 61.9722C6.94446 60.1903 8.6039 58.75 10.65 58.75H77.35C79.3994 58.75 81.0556 60.1903 81.0556 61.9722Z" fill="#E1E8ED"/>
    <path d="M58.5 52.3056H19.8334C18.1242 52.3056 16.485 52.9845 15.2764 54.1931C14.0679 55.4017 13.3889 57.0408 13.3889 58.75H64.9445C64.9445 57.0408 64.2655 55.4017 63.0569 54.1931C61.8484 52.9845 60.2092 52.3056 58.5 52.3056ZM64.9445 0.75V58.75C68.5018 58.75 71.3889 55.5052 71.3889 51.5V8C71.3889 3.99478 68.5018 0.75 64.9445 0.75Z" fill="#99AAB5"/>
    <path d="M110.056 13.6389C110.056 11.9297 109.377 10.2906 108.168 9.08199C106.959 7.87342 105.32 7.19446 103.611 7.19446H77.8334C76.1242 7.19446 74.485 7.87342 73.2765 9.08199C72.0679 10.2906 71.3889 11.9297 71.3889 13.6389V58.75C71.3889 60.4592 72.0679 62.0984 73.2765 63.3069C74.485 64.5155 76.1242 65.1945 77.8334 65.1945H103.611C105.32 65.1945 106.959 64.5155 108.168 63.3069C109.377 62.0984 110.056 60.4592 110.056 58.75V13.6389Z" fill="#E1E8ED"/>
    <path d="M64.9444 58.75C68.5036 58.75 71.3889 55.8647 71.3889 52.3055C71.3889 48.7464 68.5036 45.8611 64.9444 45.8611C61.3853 45.8611 58.5 48.7464 58.5 52.3055C58.5 55.8647 61.3853 58.75 64.9444 58.75Z" fill="#CCD6DD"/>
    <path d="M71.3889 13.6389H110.056V20.0834H71.3889V13.6389Z" fill="#CCD6DD"/>
    <path d="M81.0556 68.4167C81.0556 69.2713 80.7161 70.0909 80.1118 70.6951C79.5075 71.2994 78.6879 71.6389 77.8334 71.6389H10.1667C9.31209 71.6389 8.49251 71.2994 7.88822 70.6951C7.28394 70.0909 6.94446 69.2713 6.94446 68.4167C6.94446 67.5621 7.28394 66.7425 7.88822 66.1382C8.49251 65.5339 9.31209 65.1945 10.1667 65.1945H77.8334C78.6879 65.1945 79.5075 65.5339 80.1118 66.1382C80.7161 66.7425 81.0556 67.5621 81.0556 68.4167Z" fill="#AAB8C2"/>
  </g>
  <defs>
    <clipPath id="clip0_1_366">
      <rect width="116" height="116" fill="white" transform="translate(0.5 0.75)"/>
    </clipPath>
  </defs>
</svg>