<svg width="137" height="137" viewBox="0 0 137 137" fill="none" xmlns="http://www.w3.org/2000/svg">
<path d="M68.5 136.417C105.949 136.417 136.417 105.949 136.417 68.5C136.417 31.0507 105.949 0.583328 68.5 0.583328C31.0507 0.583328 0.583313 31.0507 0.583313 68.5C0.583313 105.949 31.0507 136.417 68.5 136.417ZM92.2233 48.125C93.5774 48.0904 94.9248 48.3273 96.1859 48.8217C97.447 49.3161 98.5964 50.0581 99.5662 51.0038C100.536 51.9495 101.307 53.0798 101.833 54.328C102.359 55.5763 102.63 56.9173 102.629 58.2718C102.629 59.6264 102.357 60.9672 101.83 62.2151C101.303 63.463 100.532 64.5928 99.5613 65.5378C98.5909 66.4829 97.441 67.224 96.1796 67.7176C94.9181 68.2112 93.5706 68.4472 92.2165 68.4117C89.5718 68.3424 87.0587 67.2428 85.2129 65.3474C83.3672 63.452 82.3347 60.9107 82.3356 58.265C82.3365 55.6194 83.3706 53.0787 85.2177 51.1846C87.0647 49.2904 89.5785 48.1925 92.2233 48.125ZM63.0123 95.1165C66.6347 95.8432 70.3653 95.8432 73.9876 95.1165C75.7059 94.7634 77.4174 94.2268 79.0814 93.5341C80.6706 92.8549 82.2327 92.0127 83.6929 91.0347C85.1056 90.0703 86.4571 88.9565 87.7068 87.7136C88.9497 86.4775 90.0635 85.126 91.0279 83.693L102.289 91.2792C99.3609 95.6183 95.6282 99.3556 91.2928 102.289C86.8757 105.269 81.9171 107.355 76.6975 108.428C71.2863 109.515 65.7127 109.513 60.3024 108.421C55.0813 107.364 50.1224 105.279 45.7139 102.289C41.3784 99.3483 37.6422 95.6098 34.7046 91.2724L45.9652 83.6862C46.9364 85.1192 48.0503 86.4707 49.2796 87.6932C53.0294 91.4618 57.8054 94.0435 63.0123 95.1165ZM44.7291 48.125C46.0674 48.1254 47.3925 48.3895 48.6288 48.902C49.865 49.4146 50.9882 50.1656 51.9342 51.1122C52.8802 52.0589 53.6305 53.1826 54.1422 54.4191C54.6539 55.6557 54.9171 56.981 54.9166 58.3193C54.9162 59.6576 54.6522 60.9827 54.1396 62.2189C53.6271 63.4552 52.876 64.5783 51.9294 65.5243C50.9828 66.4703 49.8591 67.2206 48.6225 67.7323C47.3859 68.2441 46.0606 68.5072 44.7224 68.5068C42.0196 68.5059 39.4278 67.4313 37.5173 65.5195C35.6068 63.6077 34.534 61.0153 34.5349 58.3125C34.5358 55.6097 35.6103 53.018 37.5221 51.1074C39.4339 49.1969 42.0264 48.1241 44.7291 48.125Z" fill="#02D9A0"/>
</svg>
