<svg xmlns="http://www.w3.org/2000/svg" width="93" height="122" viewBox="0 0 93 122" fill="#FFD3B6">
  <path d="M90.8478 57.4165C88.2779 55.1232 82.5958 51.9552 70.9251 63.2088C68.756 65.2893 67.4593 66.0458 65.8088 67.8426V12.3311C65.8088 8.7375 62.9796 5.80588 59.3723 5.80588C55.765 5.80588 52.8414 8.7375 52.8414 12.3311V45.2645C52.8414 48.3379 48.8804 48.598 48.1967 46.0683V6.77521C48.1967 3.18161 45.3674 0.25 41.7601 0.25C38.1528 0.25 35.2292 3.15797 35.2292 6.77521V46.1865C34.7341 48.598 31.1975 48.5034 30.9382 45.9028V11.48C30.9382 7.88638 28.1089 4.97841 24.5016 4.97841C20.8943 4.97841 17.9707 7.88638 17.9707 11.48V45.359C17.9471 45.4063 17.9471 45.4772 17.9471 45.5954C17.9471 48.5507 14.1512 48.8108 13.4675 46.4229V22.1662C13.4675 18.5726 10.6382 15.6646 7.03089 15.6646C3.42357 15.6646 0.5 18.5726 0.5 22.1662V79.2381C0.5 90.8227 7.29024 100.823 17.0984 105.457V114.725C17.0984 118.318 20.0219 121.25 23.6057 121.25H49.6349C53.2186 121.25 56.1422 118.318 56.1422 114.725V108.152C60.4568 107.656 64.2292 105.363 66.6812 102.029C66.7284 101.982 66.7519 101.934 66.7755 101.887C66.8462 101.793 66.917 101.698 66.9641 101.603C67.1763 101.367 67.4357 100.941 67.7422 100.327C67.9072 100.043 68.0487 99.7594 68.1901 99.452C71.1844 93.376 78.0218 76.9212 90.282 66.2822C92.8047 63.7525 93.4177 59.7098 90.8478 57.4165Z" fill="#FFD3B6"/>
</svg>