<svg  viewBox="0 0 70 70" fill="none" xmlns="http://www.w3.org/2000/svg">
<path d="M38.5297 5.84076L38.0935 6.28273V12.2435H32.1299L25.1761 19.1973L24.9551 24.9371L19.2153 25.158L12.2616 32.1118L12.0406 37.8516L6.31227 38.0754L5.85883 38.5145C2.46614 41.912 0.560547 46.5172 0.560547 51.3186C0.560547 56.12 2.46614 60.7251 5.85883 64.1226C9.25634 67.5153 13.8615 69.4209 18.6629 69.4209C23.4643 69.4209 28.0694 67.5153 31.4669 64.1226L64.1407 31.4488C67.5334 28.0513 69.439 23.4462 69.439 18.6448C69.439 13.8434 67.5334 9.23828 64.1407 5.84076C60.7432 2.44807 56.138 0.54248 51.3366 0.54248C46.5352 0.54248 41.9301 2.44807 38.5326 5.84076H38.5297Z" fill="#F3AD61"/>
<path d="M6.22607 38.1473L18.9655 50.8839C19.3805 51.3009 19.8738 51.6319 20.417 51.8577C20.9602 52.0835 21.5427 52.1997 22.131 52.1997C22.7193 52.1997 23.3018 52.0835 23.8451 51.8577C24.3883 51.6319 24.8816 51.3009 25.2965 50.8839C25.7136 50.469 26.0445 49.9757 26.2703 49.4325C26.4961 48.8892 26.6124 48.3067 26.6124 47.7184C26.6124 47.1301 26.4961 46.5476 26.2703 46.0044C26.0445 45.4611 25.7136 44.9679 25.2965 44.5529L12.5571 31.8163L6.22607 38.1473ZM19.0287 25.3447L31.7796 38.0957C32.1946 38.5131 32.6881 38.8444 33.2316 39.0705C33.7751 39.2965 34.3579 39.4129 34.9466 39.4129C35.5352 39.4129 36.118 39.2965 36.6615 39.0705C37.205 38.8444 37.6985 38.5131 38.1135 38.0957C38.9455 37.2515 39.4119 36.1139 39.4119 34.9287C39.4119 33.7435 38.9455 32.6059 38.1135 31.7618L25.3625 19.0109L19.0287 25.3447ZM31.8342 12.5392L44.5708 25.2787C44.9858 25.6962 45.4792 26.0275 46.0227 26.2535C46.5662 26.4796 47.149 26.596 47.7377 26.596C48.3263 26.596 48.9092 26.4796 49.4527 26.2535C49.9962 26.0275 50.4896 25.6962 50.9046 25.2787C51.3221 24.8637 51.6534 24.3703 51.8794 23.8268C52.1055 23.2833 52.2219 22.7004 52.2219 22.1118C52.2219 21.5231 52.1055 20.9403 51.8794 20.3968C51.6534 19.8533 51.3221 19.3599 50.9046 18.9448L38.1652 6.20825L31.8342 12.5392Z" fill="#FFF3D7"/>
</svg>
