<svg viewBox="0 0 504 567" fill="none" xmlns="http://www.w3.org/2000/svg">
<g clip-path="url(#clip0_434_467)">
<rect x="1" y="1" width="502" height="565" fill="#CEC7D7"/>
<rect x="1" y="368" width="168" height="198" fill="#756489"/>
<rect x="1" y="1" width="168" height="198" fill="#756489"/>
<g clip-path="url(#clip1_434_467)">
<rect x="-27" y="221" width="460" height="69" fill="#92E5FF"/>
<circle cx="427" cy="227" r="27" fill="#F6C034"/>
<path d="M102 270C89.1667 265.5 53.6 262.7 14 287.5H182.5L102 270Z" fill="#65D75B"/>
</g>
<rect x="-27" y="221" width="460" height="69" stroke="white" stroke-width="5"/>
<rect x="170" y="1" width="168" height="198" fill="#756489"/>
<rect x="340" y="1" width="168" height="198" fill="#756489"/>
<rect x="169" y="369" width="334" height="191" fill="#443A50"/>
<rect x="168.333" y="361" width="2" height="205" fill="#584B68"/>
<rect x="168" y="1" width="2" height="198" fill="#584B68"/>
<rect x="338" y="1" width="2" height="198" fill="#584B68"/>
<rect x="1" y="201" width="2.00001" height="502" transform="rotate(-90 1 201)" fill="#584B68"/>
<rect x="147" y="389" width="4" height="41" rx="2" fill="#584B68"/>
<rect x="147" y="140" width="4" height="41" rx="2" fill="#584B68"/>
<rect x="316" y="140" width="4" height="41" rx="2" fill="#584B68"/>
<rect x="403" y="181" width="4" height="41" rx="2" transform="rotate(-90 403 181)" fill="#584B68"/>
<rect x="335.66" y="361" width="2" height="205" fill="#584B68"/>
<rect x="1" y="361" width="337" height="12" fill="#AFA3BD"/>
<rect x="174" y="378" width="158" height="182" rx="4" fill="#868686"/>
<rect x="174" y="405" width="158" height="155" fill="#939393"/>
<rect x="238" y="415" width="30" height="4" rx="2" fill="#878787"/>
<rect x="228" y="386" width="50" height="12" fill="#D9D9D9"/>
<rect x="185" y="389" width="6" height="6" rx="3" fill="#D9D9D9"/>
<rect x="195" y="389" width="6" height="6" rx="3" fill="#D9D9D9"/>
<rect x="205" y="389" width="6" height="6" rx="3" fill="#D9D9D9"/>
<rect x="303" y="389" width="18" height="6" rx="3" fill="#D9D9D9"/>
<rect x="173.5" y="377.5" width="159" height="183" rx="4.5" stroke="#747474"/>
<rect x="337" y="361" width="166" height="199" fill="#726186"/>
<rect x="349" y="382" width="15" height="15" rx="7.5" fill="#6FB44F"/>
<rect x="395" y="382" width="15" height="15" rx="7.5" fill="#B4864F"/>
<rect x="372" y="382" width="15" height="15" rx="7.5" fill="#B4A44F"/>
<rect x="418" y="382" width="15" height="15" rx="7.5" fill="#B44F4F"/>
<rect x="476" y="382" width="15" height="15" rx="2" fill="#42384D"/>
<rect opacity="0.82" x="349" y="415" width="142" height="125" rx="5" fill="black"/>
<rect x="349" y="463" width="142" height="2" fill="#D9D9D9"/>
<rect x="349" y="494" width="142" height="2" fill="#D9D9D9"/>
<rect x="349" y="525" width="142" height="2" fill="#D9D9D9"/>
<path d="M365.47 484.829L368.89 494.226" stroke="#D9D9D9" stroke-linecap="square"/>
<path d="M377.172 493.836C377.678 493.984 378.19 494.111 378.703 494.233" stroke="#D9D9D9" stroke-width="2" stroke-linecap="round"/>
<path d="M367.454 486.489C367.437 486.535 367.522 486.527 367.546 486.529C367.658 486.541 367.769 486.546 367.879 486.573C367.921 486.584 367.971 486.588 368.001 486.62C368.016 486.636 367.958 486.638 367.936 486.634C367.544 486.567 367.155 486.349 366.844 486.111C366.768 486.053 366.327 485.653 366.705 485.635C366.873 485.627 367.109 485.754 367.069 485.951C367.034 486.12 367.068 486.23 367.155 486.393C367.473 486.984 367.92 487.511 368.283 488.076C368.695 488.717 369.228 489.357 369.526 490.062C369.732 490.549 369.85 491.096 369.936 491.618C369.984 491.905 370.014 492.155 369.703 492.277C369.61 492.313 369.424 492.329 369.358 492.416C369.309 492.479 369.307 492.515 369.229 492.567C369.174 492.605 369.117 492.657 369.061 492.691C369.038 492.705 369.053 492.638 369.053 492.611C369.049 492.361 369.041 492.228 369.006 491.955C368.832 490.602 368.458 489.289 368.034 487.996C367.959 487.766 367.879 487.539 367.79 487.314C367.78 487.287 367.754 487.205 367.757 487.234C367.764 487.317 367.786 487.398 367.807 487.478C368.187 488.952 368.911 490.309 369.263 491.795C369.33 492.077 369.391 492.36 369.478 492.637C369.523 492.78 369.613 492.932 369.646 493.078C369.707 493.354 369.954 493.316 370.239 493.352C371.813 493.55 373.385 493.429 374.956 493.285C375.879 493.2 376.776 492.963 377.699 492.889C379.301 492.76 380.911 492.959 382.517 492.881C383.325 492.841 384.131 492.77 384.941 492.788C385.588 492.803 386.22 492.898 386.859 492.986C387.476 493.071 388.174 492.979 388.768 493.173C389.051 493.266 388.19 493.327 387.895 493.365C386.376 493.556 384.866 493.592 383.338 493.537C382.369 493.502 381.413 493.511 380.445 493.531C380.037 493.539 379.621 493.506 379.218 493.579C379.172 493.588 378.832 493.644 379.113 493.647C380.263 493.656 381.414 493.651 382.563 493.647C383.573 493.643 384.584 493.641 385.591 493.558C386.531 493.481 387.459 493.31 388.395 493.205C389.163 493.118 389.953 493.049 390.726 493.041C391.599 493.031 392.468 493.031 393.337 493.114C393.734 493.152 394.117 493.116 394.513 493.116C395.556 493.116 396.559 493.326 397.597 493.411C398.275 493.467 398.992 493.627 399.672 493.6C400.182 493.58 400.672 493.56 401.182 493.571C401.413 493.576 401.629 493.557 401.856 493.516C402.065 493.478 402.278 493.562 402.482 493.525C402.959 493.438 402.996 492.875 403.109 492.498C403.155 492.344 403.271 492.252 403.372 492.132C403.538 491.936 403.688 491.736 403.829 491.522C404.115 491.086 404.315 490.598 404.527 490.125C404.764 489.6 404.918 489.032 405.209 488.534C405.54 487.967 405.587 487.378 405.71 486.742C405.785 486.355 405.957 485.835 405.87 485.45C405.851 485.367 405.817 485.325 405.722 485.324C404.863 485.309 403.965 485.521 403.118 485.635C401.707 485.826 400.327 485.966 398.902 485.9C396.638 485.795 394.37 485.823 392.104 485.806C390.773 485.796 389.438 485.686 388.109 485.803C386.442 485.951 384.801 485.997 383.127 485.997C380.313 485.997 377.497 486.012 374.683 485.997C373.19 485.989 371.738 485.662 370.252 485.572C369.871 485.549 369.325 485.403 368.956 485.532C368.8 485.587 368.689 485.801 368.592 485.928C368.435 486.133 368.429 486.525 368.594 486.729C368.822 487.012 369.326 487.015 369.652 487.015C370.013 487.015 370.361 486.915 370.719 486.906C370.97 486.899 371.218 486.904 371.468 486.868" stroke="#D9D9D9" stroke-width="2" stroke-linecap="round"/>
<path d="M371.808 487.133C373.511 487.133 375.25 487.221 376.95 487.087C379.841 486.859 382.772 486.982 385.673 486.982C387.568 486.982 389.46 486.987 391.355 487.036C392.672 487.07 393.948 487.039 395.249 487.285C396.106 487.447 396.936 487.6 397.812 487.533C398.847 487.454 399.881 487.432 400.911 487.289C401.902 487.151 402.886 486.998 403.858 486.771C404.453 486.632 404.033 487.244 403.873 487.466C403.657 487.762 403.456 488.057 403.269 488.372C403.035 488.766 402.747 489.127 402.579 489.557C402.318 490.223 402.19 490.947 401.88 491.593C401.791 491.779 401.69 491.958 401.611 492.149C401.526 492.355 401.443 492.525 401.672 492.191C402.25 491.35 402.889 490.555 403.439 489.693C403.459 489.663 403.756 489.186 403.679 489.163C403.539 489.121 403.401 489.261 403.273 489.332C402.738 489.626 402.223 489.97 401.737 490.339C401.152 490.784 400.438 491.484 400.399 492.275C400.387 492.531 400.353 492.614 400.058 492.662C399.557 492.744 399.031 492.654 398.531 492.603C397.977 492.547 397.421 492.482 396.865 492.452C396.345 492.423 395.824 492.456 395.304 492.464C394.314 492.481 393.344 492.458 392.361 492.332C390.968 492.152 389.59 491.908 388.187 491.825C387.483 491.783 386.79 491.678 386.089 491.61C385.053 491.51 384.015 491.532 382.975 491.526C381.893 491.52 380.819 491.395 379.736 491.412C379.169 491.422 378.611 491.511 378.048 491.56C377.371 491.619 376.689 491.639 376.01 491.677C375.284 491.718 374.564 491.834 373.839 491.888C373.082 491.944 372.335 491.98 371.577 491.98C371.224 491.98 370.809 491.873 370.693 491.48C370.61 491.197 370.61 490.895 370.588 490.604C370.555 490.17 370.389 489.8 370.209 489.407C369.981 488.907 369.336 487.389 369.526 487.905C369.72 488.434 369.89 488.978 370.113 489.496C370.22 489.746 370.342 490.057 370.586 490.219C370.904 490.431 371.166 490.15 371.291 489.877C371.392 489.655 371.439 489.32 371.493 489.085C371.512 489 371.576 488.679 371.665 488.589C371.925 488.329 372.156 489.673 372.158 489.683C372.204 489.927 372.148 490.216 372.296 490.415C372.388 490.538 372.384 490.118 372.393 489.965C372.41 489.675 372.401 489.391 372.376 489.102C372.366 488.987 372.264 488.678 372.381 488.955C372.484 489.201 372.599 489.428 372.723 489.666C372.76 489.736 372.998 490.206 373.113 490.308C373.184 490.371 373.223 490.147 373.241 490.053C373.28 489.847 373.311 489.581 373.441 489.401C373.73 489 374.031 489.769 374.154 489.935C374.26 490.079 374.285 490.09 374.348 489.916C374.433 489.679 374.468 489.426 374.541 489.184C374.542 489.183 374.671 488.701 374.779 488.652C374.896 488.599 374.95 488.849 374.998 488.968C375.039 489.069 375.087 489.208 375.12 489.321C375.128 489.348 375.102 489.267 375.09 489.241C375.076 489.21 375.069 489.307 375.061 489.34C374.991 489.618 374.973 489.726 374.712 489.952C374.228 490.372 373.74 490.529 373.115 490.689C372.278 490.902 371.185 491.099 370.31 490.97C369.658 490.875 369.844 489.857 369.881 489.414C369.93 488.832 370.111 488.512 370.697 488.387C371.182 488.284 371.688 488.327 372.179 488.282C372.684 488.236 373.17 488.158 373.681 488.137C374.847 488.088 376.037 488.148 377.196 488.017C377.713 487.958 378.209 487.861 378.732 487.869C379.679 487.885 380.624 488.026 381.566 488.118C384.062 488.36 386.536 488.762 389.055 488.631C390.952 488.532 392.865 488.198 394.767 488.387C395.764 488.486 396.743 488.706 397.744 488.774C398.503 488.826 399.242 488.775 399.995 488.707C400.52 488.659 401.097 488.604 401.573 488.892C401.691 488.963 401.7 489.098 401.725 489.22C401.738 489.284 401.683 489.491 401.681 489.405C401.675 489.212 401.779 489.036 401.8 488.848C401.822 488.658 401.575 489.162 401.424 489.279C400.776 489.783 399.931 490.047 399.124 490.125C397.475 490.283 395.793 490.2 394.138 490.2C392.693 490.2 391.248 490.2 389.802 490.2C388.674 490.2 387.54 490.22 386.413 490.137C385.482 490.069 384.562 489.909 383.636 489.792C382.734 489.679 381.83 489.603 380.926 489.51C379.734 489.389 378.524 489.119 377.32 489.245C376.848 489.295 376.369 489.365 375.907 489.473C375.779 489.502 375.678 489.547 375.58 489.635C375.129 490.04 376.36 490.253 376.508 490.28C377.631 490.491 378.765 490.437 379.9 490.482C380.512 490.507 381.121 490.535 381.734 490.541C382.789 490.552 383.835 490.657 384.888 490.684C386.483 490.726 388.082 490.64 389.674 490.781C391.171 490.914 392.649 491.147 394.155 491.147C394.844 491.147 395.521 491.144 396.204 491.248C396.78 491.336 397.312 491.412 397.892 491.412C398.451 491.412 399.007 491.374 399.566 491.374" stroke="#D9D9D9" stroke-width="2" stroke-linecap="round"/>
<path d="M365.77 484.7H407.152" stroke="#D9D9D9" stroke-width="2" stroke-linecap="round"/>
<path d="M407.42 484.829L404 494.226" stroke="#D9D9D9" stroke-linecap="square"/>
<rect opacity="0.82" x="349" y="415" width="142" height="125" rx="5" fill="#42384D"/>
<rect x="342" y="435" width="156" height="10" fill="#28222F"/>
<rect x="352" y="359" width="55" height="2" fill="#28222F"/>
<rect x="433" y="359" width="55" height="2" fill="#28222F"/>
<rect x="1" y="554" width="502" height="12" fill="#AFA3BD"/>
</g>
<rect x="0.5" y="0.5" width="503" height="566"/>
<defs>
<clipPath id="clip0_434_467">
<rect x="1" y="1" width="502" height="565" fill="white"/>
</clipPath>
<clipPath id="clip1_434_467">
<rect x="-27" y="221" width="460" height="69" fill="white"/>
</clipPath>
</defs>
</svg>
