<svg viewBox="0 0 273 206" fill="none" xmlns="http://www.w3.org/2000/svg">
<path d="M259.37 204.064L256.67 200.764M256.67 200.764L253.37 203.464M256.67 200.764L257.77 189.164" stroke="#C1272D" stroke-width="3" stroke-linecap="round"/>
<path d="M257.17 178.463C257.17 178.463 264.67 121.963 225.17 60.7634C192.67 10.3634 146.27 4.76346 95.37 28.5635C40.87 54.0635 37.87 136.263 15.27 161.263" stroke="#99FFA5" stroke-width="30" stroke-miterlimit="10" stroke-linecap="round"/>
<path d="M257.77 185.963C261.912 185.963 265.27 182.606 265.27 178.463C265.27 174.321 261.912 170.963 257.77 170.963C253.628 170.963 250.27 174.321 250.27 178.463C250.27 182.606 253.628 185.963 257.77 185.963Z" fill="white"/>
<path d="M257.57 182.163C259.89 182.163 261.77 180.283 261.77 177.963C261.77 175.644 259.89 173.763 257.57 173.763C255.251 173.763 253.37 175.644 253.37 177.963C253.37 180.283 255.251 182.163 257.57 182.163Z" fill="#4D4D4D"/>
<path d="M260.27 176.863C261.264 176.863 262.07 176.058 262.07 175.063C262.07 174.069 261.264 173.263 260.27 173.263C259.276 173.263 258.47 174.069 258.47 175.063C258.47 176.058 259.276 176.863 260.27 176.863Z" fill="white"/>
</svg>
