<svg  viewBox="0 0 416 658" fill="none" xmlns="http://www.w3.org/2000/svg">
<path d="M204.99 89H204.59C100.39 89 15.9902 177.3 15.4902 286.4V288.8C15.8902 355.1 43.5902 509.5 83.0902 599.2C106.19 651.8 143.79 657.4 204.79 657.9C265.69 657.4 303.29 651.8 326.39 599.2C366.19 508.8 393.99 352.7 393.99 287.2C393.99 177.7 309.39 89 204.99 89Z" fill="#5FB3FF"/>
<path d="M12.2903 148.5C20.2903 177.9 36.9903 203.7 67.4903 203.7C97.9903 203.7 130.79 177.9 122.69 148.5C113.99 116.8 86.2903 122.8 68.5903 94C44.5903 55 35.5903 0 17.9903 0C-12.5097 0.1 2.99032 114.7 12.2903 148.5Z" fill="#99FFA5"/>
<path d="M403.69 148.5C395.59 177.9 378.99 203.7 348.49 203.7C317.99 203.7 286.39 178.2 293.29 148.5C299.69 121.1 329.69 122.8 347.39 94C371.39 55 380.39 0 397.99 0C428.39 0.1 412.89 114.7 403.69 148.5Z" fill="#99FFA5"/>
</svg>
