<svg width="38" height="38" viewBox="0 0 38 38" fill="none" xmlns="http://www.w3.org/2000/svg">
<path d="M5.7 28.5H8.55V25.65H29.45V28.5H32.3V21.185C32.3 20.52 32.1733 19.8949 31.92 19.3097C31.6667 18.7245 31.3183 18.2096 30.875 17.765V13.3C30.875 12.255 30.5032 11.3607 29.7597 10.6172C29.0162 9.87367 28.1213 9.50127 27.075 9.5H20.9C20.5517 9.5 20.2192 9.5475 19.9025 9.6425C19.5858 9.7375 19.285 9.88 19 10.07C18.715 9.88 18.4142 9.7375 18.0975 9.6425C17.7808 9.5475 17.4483 9.5 17.1 9.5H10.925C9.88 9.5 8.98573 9.8724 8.2422 10.6172C7.49867 11.362 7.12627 12.2563 7.125 13.3V17.765C6.68167 18.2083 6.33333 18.7232 6.08 19.3097C5.82667 19.8962 5.7 20.5213 5.7 21.185V28.5ZM8.55 22.8V20.9C8.55 20.3617 8.7324 19.9107 9.0972 19.5472C9.462 19.1837 9.91293 19.0013 10.45 19H27.55C28.0883 19 28.5399 19.1824 28.9047 19.5472C29.2695 19.912 29.4513 20.3629 29.45 20.9V22.8H8.55ZM9.975 16.15V12.35H17.575V16.15H9.975ZM20.425 16.15V12.35H28.025V16.15H20.425ZM3.8 38C2.755 38 1.86073 37.6282 1.1172 36.8847C0.373667 36.1412 0.00126667 35.2463 0 34.2V3.8C0 2.755 0.3724 1.86073 1.1172 1.1172C1.862 0.373667 2.75627 0.00126667 3.8 0H34.2C35.245 0 36.1399 0.3724 36.8847 1.1172C37.6295 1.862 38.0013 2.75627 38 3.8V34.2C38 35.245 37.6282 36.1399 36.8847 36.8847C36.1412 37.6295 35.2463 38.0013 34.2 38H3.8Z" fill="#9F53FF"/>
</svg>
