<svg width="85" height="55" viewBox="0 0 85 55" fill="none" xmlns="http://www.w3.org/2000/svg">
<path d="M0.03125 54.309H5.87128V43.903H78.4543V54.309H84.2943V31.696C84.2943 29.98 83.8583 28.185 82.9743 26.318C82.0963 24.451 80.8893 22.959 79.3453 21.844V10.653C79.3453 7.618 78.3293 5.084 76.2903 3.045C74.2573 1.013 71.7243 -0.00299072 68.6823 -0.00299072H49.5203C47.8043 -0.00299072 46.3333 0.307006 45.1053 0.934006C43.8783 1.56101 42.9013 2.412 42.1623 3.5C41.4303 2.412 40.4473 1.56101 39.2193 0.934006C37.9923 0.307006 36.5212 -0.00299072 34.7982 -0.00299072H15.6503C12.6143 -0.00299072 10.0803 1.013 8.04126 3.045C6.00926 5.084 4.98627 7.618 4.98627 10.653V21.844C3.44927 22.959 2.24127 24.451 1.35727 26.318C0.480269 28.185 0.038269 29.974 0.038269 31.696L0.03125 54.309ZM5.87128 38.063V31.465C5.87128 29.598 6.50427 28.027 7.77127 26.767C9.03827 25.507 10.6083 24.873 12.4693 24.866H71.8563C73.7303 24.866 75.2933 25.5 76.5603 26.767C77.8273 28.034 78.4613 29.598 78.4543 31.465V38.063H5.87128ZM10.8193 19.027V9.89401C10.8193 8.70701 11.2023 7.73001 11.9613 6.97101C12.7263 6.21201 13.6963 5.83 14.8783 5.83H35.1813C36.3693 5.83 37.3452 6.21201 38.1042 6.97101C38.8702 7.73701 39.2463 8.71301 39.2463 9.89401V19.027H10.8193ZM45.0793 19.027V9.89401C45.0793 8.70701 45.4623 7.73001 46.2203 6.97101C46.9863 6.21201 47.9563 5.83 49.1443 5.83H69.4473C70.6353 5.83 71.6053 6.21201 72.3643 6.97101C73.1293 7.73001 73.5052 8.70701 73.5052 9.89401V19.027H45.0793Z" fill="#7644B2"/>
</svg>
