<svg width="67" height="54" viewBox="0 0 67 54" fill="none" xmlns="http://www.w3.org/2000/svg">
<path d="M33.25 0.788452C30.1867 0.788452 27.249 2.00993 25.0829 4.18418C22.9169 6.35843 21.7 9.30735 21.7 12.3822H28.3C28.3 11.0644 28.8215 9.80059 29.7498 8.86876C30.6781 7.93694 31.9372 7.41345 33.25 7.41345C34.5628 7.41345 35.8219 7.93694 36.7502 8.86876C37.6785 9.80059 38.2 11.0644 38.2 12.3822C38.2 13.7 37.6785 14.9638 36.7502 15.8956C35.8219 16.8275 34.5628 17.351 33.25 17.351C31.435 17.351 29.95 18.8416 29.95 20.6635V26.4603L1.57 47.826C1.01591 48.2431 0.60662 48.8247 0.400105 49.4883C0.193591 50.1519 0.200322 50.8639 0.419345 51.5235C0.638368 52.183 1.05858 52.7567 1.62046 53.1632C2.18233 53.5697 2.85739 53.7885 3.55 53.7885H62.95C63.6426 53.7885 64.3177 53.5697 64.8795 53.1632C65.4414 52.7567 65.8616 52.183 66.0807 51.5235C66.2997 50.8639 66.3064 50.1519 66.0999 49.4883C65.8934 48.8247 65.4841 48.2431 64.93 47.826L36.55 26.4603V23.4791C38.9314 22.7664 41.0203 21.3018 42.5066 19.3027C43.9928 17.3036 44.7971 14.8766 44.8 12.3822C44.8 9.30735 43.5831 6.35843 41.4171 4.18418C39.251 2.00993 36.3133 0.788452 33.25 0.788452ZM33.25 32.2572L53.05 47.1635H13.45L33.25 32.2572Z" fill="#80028B"/>
</svg>
