<svg width="18" height="18" viewBox="0 0 18 18" fill="none" xmlns="http://www.w3.org/2000/svg">
<path d="M17.855 9.00001C17.855 13.8143 13.9522 17.7171 9.13795 17.7171C4.32366 17.7171 0.420898 13.8143 0.420898 9.00001C0.420898 4.18572 4.32366 0.282959 9.13795 0.282959C13.9522 0.282959 17.855 4.18572 17.855 9.00001Z" fill="#FAE464"/>
<mask id="mask0_438_957" style="mask-type:alpha" maskUnits="userSpaceOnUse" x="0" y="0" width="18" height="18">
<path d="M17.855 9.00001C17.855 13.8143 13.9522 17.7171 9.13795 17.7171C4.32366 17.7171 0.420898 13.8143 0.420898 9.00001C0.420898 4.18572 4.32366 0.282959 9.13795 0.282959C13.9522 0.282959 17.855 4.18572 17.855 9.00001Z" fill="#EDD046"/>
</mask>
<g mask="url(#mask0_438_957)">
<rect x="12.5918" y="-9.40283" width="20.6626" height="13.5599" transform="rotate(45 12.5918 -9.40283)" fill="#F9DA49"/>
</g>
<path fill-rule="evenodd" clip-rule="evenodd" d="M9.13768 3.18372C5.92544 3.18372 3.32141 5.78775 3.32141 8.99999C3.32141 12.2122 5.92544 14.8163 9.13768 14.8163C12.3499 14.8163 14.954 12.2122 14.954 8.99999C14.954 5.78775 12.3499 3.18372 9.13768 3.18372ZM2.16895 8.99999C2.16895 5.15126 5.28896 2.03125 9.13768 2.03125C12.9864 2.03125 16.1064 5.15126 16.1064 8.99999C16.1064 12.8487 12.9864 15.9687 9.13768 15.9687C5.28896 15.9687 2.16895 12.8487 2.16895 8.99999Z" fill="#F6C944"/>
<path d="M12.7249 2.38213C12.7873 2.31971 12.8885 2.31971 12.9509 2.38213L13.4454 2.87663C13.5078 2.93905 13.5078 3.04025 13.4454 3.10267L12.9509 3.59717C12.8885 3.65959 12.7873 3.65959 12.7249 3.59717L12.2304 3.10267C12.1679 3.04025 12.1679 2.93905 12.2304 2.87663L12.7249 2.38213Z" fill="white"/>
<path fill-rule="evenodd" clip-rule="evenodd" d="M8.44479 0.199427C8.67352 0.181657 8.90469 0.172607 9.13794 0.172607C9.3712 0.172607 9.60236 0.181657 9.8311 0.199427C9.89185 0.204147 9.93728 0.257227 9.93256 0.317984C9.92784 0.378742 9.87476 0.424169 9.814 0.419449C9.59095 0.40212 9.36549 0.393292 9.13794 0.393292C8.9104 0.393292 8.68494 0.40212 8.46188 0.419449C8.40112 0.424169 8.34804 0.378742 8.34332 0.317984C8.3386 0.257227 8.38403 0.204147 8.44479 0.199427ZM11.0665 0.496287C11.0806 0.437019 11.1402 0.400468 11.1995 0.414648C11.6533 0.523222 12.0934 0.66684 12.517 0.842478C12.5733 0.865822 12.6 0.930379 12.5766 0.986671C12.5533 1.04296 12.4887 1.06967 12.4325 1.04633C12.0196 0.875113 11.5905 0.735115 11.1481 0.629276C11.0888 0.615096 11.0523 0.555555 11.0665 0.496287ZM7.20942 0.496287C7.2236 0.555555 7.18705 0.615096 7.12778 0.629276C6.68541 0.735115 6.25631 0.875114 5.84343 1.04633C5.78713 1.06967 5.72258 1.04296 5.69923 0.986672C5.67589 0.930379 5.7026 0.865822 5.75889 0.842478C6.18244 0.66684 6.62263 0.523222 7.07643 0.414649C7.1357 0.400469 7.19524 0.437019 7.20942 0.496287ZM13.5991 1.50863C13.631 1.4567 13.6989 1.44045 13.7509 1.47234C14.1459 1.71491 14.5203 1.9877 14.871 2.28747C14.9173 2.32707 14.9227 2.39672 14.8831 2.44304C14.8436 2.48936 14.7739 2.49481 14.7276 2.45521C14.3856 2.16289 14.0205 1.89691 13.6354 1.6604C13.5834 1.62851 13.5672 1.56056 13.5991 1.50863ZM4.67679 1.50863C4.70868 1.56056 4.69243 1.62851 4.6405 1.6604C4.25536 1.89691 3.89025 2.16289 3.5483 2.45521C3.50198 2.49481 3.43233 2.48936 3.39273 2.44304C3.35313 2.39672 3.35858 2.32707 3.4049 2.28747C3.75556 1.9877 4.13001 1.71491 4.52502 1.47234C4.57695 1.44045 4.6449 1.4567 4.67679 1.50863ZM15.6949 3.25479C15.7412 3.21519 15.8109 3.22064 15.8505 3.26696C16.1502 3.61762 16.423 3.99207 16.6656 4.38708C16.6975 4.43901 16.6812 4.50696 16.6293 4.53885C16.5774 4.57074 16.5094 4.55449 16.4775 4.50256C16.241 4.11742 15.975 3.75231 15.6827 3.41037C15.6431 3.36404 15.6486 3.29439 15.6949 3.25479ZM2.58098 3.25479C2.6273 3.29439 2.63275 3.36404 2.59315 3.41037C2.30083 3.75231 2.03485 4.11742 1.79834 4.50256C1.76645 4.55449 1.6985 4.57074 1.64657 4.53885C1.59464 4.50696 1.57839 4.43901 1.61028 4.38708C1.85285 3.99207 2.12564 3.61762 2.42541 3.26696C2.46501 3.22064 2.53466 3.21519 2.58098 3.25479ZM1.12461 5.56129C1.1809 5.58464 1.20761 5.64919 1.18427 5.70549C1.01305 6.11837 0.873054 6.54747 0.767215 6.98984C0.753035 7.04911 0.693494 7.08566 0.634226 7.07148C0.574959 7.0573 0.538408 6.99776 0.552588 6.93849C0.661162 6.48469 0.804779 6.0445 0.980418 5.62095C1.00376 5.56466 1.06832 5.53795 1.12461 5.56129ZM17.1513 5.56129C17.2076 5.53795 17.2721 5.56466 17.2955 5.62095C17.4711 6.0445 17.6147 6.48469 17.7233 6.93849C17.7375 6.99776 17.7009 7.0573 17.6417 7.07148C17.5824 7.08566 17.5228 7.04911 17.5087 6.98984C17.4028 6.54747 17.2628 6.11837 17.0916 5.70549C17.0683 5.64919 17.095 5.58464 17.1513 5.56129ZM0.455924 8.20538C0.516681 8.2101 0.562108 8.26318 0.557388 8.32394C0.54006 8.547 0.531232 8.77246 0.531232 9C0.531232 9.22755 0.54006 9.45301 0.557388 9.67606C0.562108 9.73682 0.516681 9.7899 0.455924 9.79462C0.395166 9.79934 0.342086 9.75391 0.337366 9.69316C0.319596 9.46442 0.310547 9.23326 0.310547 9C0.310547 8.76675 0.319596 8.53558 0.337366 8.30685C0.342086 8.24609 0.395166 8.20066 0.455924 8.20538ZM17.82 8.20538C17.8807 8.20066 17.9338 8.24609 17.9385 8.30685C17.9563 8.53558 17.9653 8.76675 17.9653 9C17.9653 9.23326 17.9563 9.46442 17.9385 9.69316C17.9338 9.75391 17.8807 9.79934 17.82 9.79462C17.7592 9.7899 17.7138 9.73682 17.7185 9.67606C17.7358 9.45301 17.7447 9.22755 17.7447 9C17.7447 8.77246 17.7358 8.547 17.7185 8.32394C17.7138 8.26318 17.7592 8.2101 17.82 8.20538ZM0.634227 10.9285C0.693494 10.9143 0.753035 10.9509 0.767215 11.0102C0.873054 11.4525 1.01305 11.8816 1.18427 12.2945C1.20761 12.3508 1.1809 12.4154 1.12461 12.4387C1.06832 12.4621 1.00376 12.4353 0.980418 12.3791C0.804779 11.9555 0.661162 11.5153 0.552588 11.0615C0.538408 11.0022 0.574959 10.9427 0.634227 10.9285ZM17.6417 10.9285C17.7009 10.9427 17.7375 11.0022 17.7233 11.0615C17.6147 11.5153 17.4711 11.9555 17.2955 12.379C17.2721 12.4353 17.2076 12.4621 17.1513 12.4387C17.095 12.4154 17.0683 12.3508 17.0916 12.2945C17.2628 11.8816 17.4028 11.4525 17.5087 11.0102C17.5228 10.9509 17.5824 10.9143 17.6417 10.9285ZM1.64657 13.4612C1.6985 13.4293 1.76645 13.4455 1.79834 13.4974C2.03485 13.8826 2.30083 14.2477 2.59315 14.5896C2.63275 14.636 2.6273 14.7056 2.58098 14.7452C2.53466 14.7848 2.46501 14.7794 2.42541 14.733C2.12564 14.3824 1.85285 14.0079 1.61028 13.6129C1.57839 13.561 1.59464 13.493 1.64657 13.4612ZM16.6293 13.4612C16.6812 13.493 16.6975 13.561 16.6656 13.6129C16.423 14.0079 16.1502 14.3824 15.8505 14.733C15.8109 14.7794 15.7412 14.7848 15.6949 14.7452C15.6486 14.7056 15.6431 14.636 15.6827 14.5896C15.975 14.2477 16.241 13.8826 16.4775 13.4974C16.5094 13.4455 16.5774 13.4293 16.6293 13.4612ZM14.8832 15.557C14.9227 15.6033 14.9173 15.6729 14.871 15.7125C14.5203 16.0123 14.1459 16.2851 13.7509 16.5277C13.6989 16.5596 13.631 16.5433 13.5991 16.4914C13.5672 16.4394 13.5834 16.3715 13.6354 16.3396C14.0205 16.1031 14.3856 15.8371 14.7276 15.5448C14.7739 15.5052 14.8436 15.5106 14.8832 15.557ZM3.39273 15.557C3.43233 15.5106 3.50198 15.5052 3.54831 15.5448C3.89025 15.8371 4.25536 16.1031 4.6405 16.3396C4.69243 16.3715 4.70868 16.4394 4.67679 16.4914C4.6449 16.5433 4.57695 16.5596 4.52502 16.5277C4.13001 16.2851 3.75556 16.0123 3.4049 15.7125C3.35858 15.6729 3.35313 15.6033 3.39273 15.557ZM5.69923 17.0133C5.72258 16.957 5.78713 16.9303 5.84343 16.9537C6.25631 17.1249 6.68541 17.2649 7.12778 17.3707C7.18705 17.3849 7.2236 17.4444 7.20942 17.5037C7.19524 17.563 7.1357 17.5995 7.07643 17.5854C6.62263 17.4768 6.18244 17.3332 5.75889 17.1575C5.7026 17.1342 5.67589 17.0696 5.69923 17.0133ZM12.5766 17.0133C12.6 17.0696 12.5733 17.1342 12.517 17.1575C12.0934 17.3332 11.6533 17.4768 11.1995 17.5854C11.1402 17.5995 11.0806 17.563 11.0665 17.5037C11.0523 17.4444 11.0888 17.3849 11.1481 17.3707C11.5905 17.2649 12.0196 17.1249 12.4325 16.9537C12.4887 16.9303 12.5533 16.957 12.5766 17.0133ZM8.34332 17.682C8.34804 17.6213 8.40112 17.5758 8.46188 17.5806C8.68493 17.5979 8.9104 17.6067 9.13794 17.6067C9.36549 17.6067 9.59095 17.5979 9.814 17.5806C9.87476 17.5758 9.92784 17.6213 9.93256 17.682C9.93728 17.7428 9.89185 17.7959 9.8311 17.8006C9.60236 17.8183 9.3712 17.8274 9.13794 17.8274C8.90469 17.8274 8.67352 17.8183 8.44479 17.8006C8.38403 17.7959 8.3386 17.7428 8.34332 17.682Z" fill="#F6C944"/>
<path d="M10.8468 8.22042C10.7459 8.20613 10.6525 8.21501 10.6525 8.21501C10.5874 8.22122 10.5337 8.23448 10.4954 8.24635C10.4944 8.24659 10.4933 8.24683 10.4923 8.24707L8.70521 8.67442C8.4643 8.73203 8.19415 8.55295 8.03348 8.48121C8.0181 8.47434 8.00655 8.46086 8.00254 8.4445L7.49225 6.36665C7.38237 5.91924 6.93252 5.64273 6.48758 5.74913L6.22747 5.81133C5.78266 5.9178 5.51097 6.36674 5.62087 6.81425L7.10015 12.8378C7.19023 13.2046 7.55969 13.4325 7.9255 13.3451L11.7349 12.4341C12.0924 12.3486 12.3107 11.9879 12.2224 11.6284C12.1412 11.2976 11.8086 11.0932 11.4798 11.1719L11.8127 11.0923C12.1702 11.0068 12.3884 10.646 12.3001 10.2865C12.2189 9.95575 11.8864 9.75136 11.5576 9.82999C11.8865 9.75133 12.0872 9.41942 12.006 9.08876L11.9932 9.03663C11.9808 8.98806 11.9578 8.91868 11.9112 8.84613C11.8361 8.72906 11.7433 8.67059 11.6258 8.59906C11.1718 8.32269 10.9916 8.24096 10.8468 8.22042Z" fill="#F6C944"/>
<path fill-rule="evenodd" clip-rule="evenodd" d="M9.87537 11.6584C9.5972 11.7252 9.43362 11.9907 9.49571 12.2428L9.49991 12.2599C9.562 12.512 9.8307 12.6738 10.109 12.607C10.1648 12.5936 10.2212 12.6282 10.235 12.6843C10.2488 12.7405 10.2148 12.7968 10.159 12.8102C9.77953 12.9013 9.39007 12.6829 9.29784 12.3084L9.29364 12.2913C9.2014 11.9168 9.44597 11.5463 9.82533 11.4552L10.6296 11.2623C10.6854 11.2489 10.7418 11.2835 10.7556 11.3396C10.7694 11.3957 10.7354 11.4521 10.6796 11.4655L9.87537 11.6584Z" fill="#F9DA49"/>
<path fill-rule="evenodd" clip-rule="evenodd" d="M9.55994 10.379C9.29179 10.4434 9.12264 10.7294 9.19576 11.0263L9.20042 11.0452C9.27354 11.3421 9.55671 11.5196 9.82496 11.4552L11.0138 11.1699C11.0696 11.1565 11.1261 11.1911 11.1399 11.2472C11.1537 11.3033 11.1197 11.3597 11.0639 11.3731L9.875 11.6584C9.48551 11.7518 9.09666 11.4929 8.99835 11.0937L8.9937 11.0748C8.89538 10.6755 9.12053 10.2693 9.5099 10.1758L11.0618 9.80341C11.1176 9.79002 11.174 9.82466 11.1878 9.88077C11.2017 9.93688 11.1676 9.99322 11.1118 10.0066L9.55994 10.379Z" fill="#F9DA49"/>
<path fill-rule="evenodd" clip-rule="evenodd" d="M9.26014 9.16345C8.98716 9.22896 8.82058 9.50463 8.8882 9.77922L8.89263 9.7972C8.96023 10.0717 9.23636 10.2412 9.50941 10.1757L11.0613 9.80328C11.1171 9.78989 11.1735 9.82452 11.1873 9.88063C11.2012 9.93675 11.1671 9.99309 11.1113 10.0065L9.55945 10.3789C9.17478 10.4712 8.7858 10.2324 8.69056 9.84569L8.68614 9.82771C8.59087 9.44088 8.82555 9.05254 9.2101 8.96025L10.505 8.6495C10.5608 8.6361 10.6173 8.67074 10.6311 8.72685C10.6449 8.78296 10.6109 8.8393 10.5551 8.8527L9.26014 9.16345Z" fill="#F9DA49"/>
</svg>
