<svg width="536" height="536" viewBox="0 0 536 536" fill="none" xmlns="http://www.w3.org/2000/svg">
<path d="M268 0C232.806 0 197.956 6.93203 165.441 20.4003C132.926 33.8685 103.381 53.6093 78.4954 78.4954C28.2356 128.755 0 196.922 0 268C0 339.078 28.2356 407.245 78.4954 457.505C103.381 482.391 132.926 502.131 165.441 515.6C197.956 529.068 232.806 536 268 536C339.078 536 407.245 507.764 457.505 457.505C507.764 407.245 536 339.078 536 268C536 232.806 529.068 197.956 515.6 165.441C502.131 132.926 482.391 103.381 457.505 78.4954C432.619 53.6093 403.074 33.8685 370.559 20.4003C338.044 6.93203 303.194 0 268 0ZM134 201C134 179.56 152.76 160.8 174.2 160.8C195.64 160.8 214.4 179.56 214.4 201C214.4 222.44 195.64 241.2 174.2 241.2C152.76 241.2 134 222.44 134 201ZM342.236 408.164C330.176 388.6 301.5 375.2 268 375.2C234.5 375.2 205.824 388.6 193.764 408.164L155.708 370.108C179.828 340.896 221.1 321.6 268 321.6C314.9 321.6 356.172 340.896 380.292 370.108L342.236 408.164ZM361.8 241.2C340.36 241.2 321.6 222.44 321.6 201C321.6 179.56 340.36 160.8 361.8 160.8C383.24 160.8 402 179.56 402 201C402 222.44 383.24 241.2 361.8 241.2Z" fill="#02D9A0"/>
</svg>
