<svg  viewBox="0 0 538 538" fill="none" xmlns="http://www.w3.org/2000/svg">
<path d="M269 0.666748C233.762 0.666748 198.869 7.6074 166.313 21.0924C133.758 34.5774 104.177 54.3427 79.2598 79.2598C28.9375 129.582 0.666748 197.834 0.666748 269C0.666748 340.167 28.9375 408.418 79.2598 458.74C104.177 483.657 133.758 503.423 166.313 516.908C198.869 530.393 233.762 537.333 269 537.333C340.167 537.333 408.418 509.063 458.74 458.74C509.063 408.418 537.333 340.167 537.333 269C537.333 233.762 530.393 198.869 516.908 166.313C503.423 133.758 483.657 104.177 458.74 79.2598C433.823 54.3427 404.243 34.5774 371.687 21.0924C339.131 7.6074 304.238 0.666748 269 0.666748ZM134.833 201.917C134.833 191.242 139.074 181.004 146.622 173.456C154.171 165.907 164.408 161.667 175.083 161.667C185.758 161.667 195.996 165.907 203.544 173.456C211.093 181.004 215.333 191.242 215.333 201.917C215.333 212.592 211.093 222.829 203.544 230.378C195.996 237.926 185.758 242.167 175.083 242.167C164.408 242.167 154.171 237.926 146.622 230.378C139.074 222.829 134.833 212.592 134.833 201.917ZM376.333 376.333H161.667V322.667H376.333V376.333ZM362.917 242.167C352.242 242.167 342.004 237.926 334.456 230.378C326.907 222.829 322.667 212.592 322.667 201.917C322.667 191.242 326.907 181.004 334.456 173.456C342.004 165.907 352.242 161.667 362.917 161.667C373.592 161.667 383.829 165.907 391.378 173.456C398.926 181.004 403.167 191.242 403.167 201.917C403.167 212.592 398.926 222.829 391.378 230.378C383.829 237.926 373.592 242.167 362.917 242.167Z" fill="#02D9A0"/>
</svg>
