<svg width="538" height="538" viewBox="0 0 538 538" fill="none" xmlns="http://www.w3.org/2000/svg">
<path d="M269 0.666748C233.762 0.666748 198.869 7.6074 166.313 21.0924C133.758 34.5774 104.177 54.3427 79.2598 79.2598C28.9375 129.582 0.666748 197.834 0.666748 269C0.666748 340.167 28.9375 408.418 79.2598 458.74C104.177 483.657 133.758 503.423 166.313 516.908C198.869 530.393 233.762 537.333 269 537.333C340.167 537.333 408.418 509.063 458.74 458.74C509.063 408.418 537.333 340.167 537.333 269C537.333 233.762 530.393 198.869 516.908 166.313C503.423 133.758 483.657 104.177 458.74 79.2598C433.823 54.3427 404.243 34.5774 371.687 21.0924C339.131 7.6074 304.238 0.666748 269 0.666748ZM134.833 201.917C134.833 180.45 153.617 161.667 175.083 161.667C196.55 161.667 215.333 180.45 215.333 201.917C215.333 223.383 196.55 242.167 175.083 242.167C153.617 242.167 134.833 223.383 134.833 201.917ZM343.328 409.338C331.253 389.75 302.542 376.333 269 376.333C235.458 376.333 206.747 389.75 194.672 409.338L156.568 371.235C180.718 341.987 222.042 322.667 269 322.667C315.958 322.667 357.282 341.987 381.432 371.235L343.328 409.338ZM362.917 242.167C341.45 242.167 322.667 223.383 322.667 201.917C322.667 180.45 341.45 161.667 362.917 161.667C384.383 161.667 403.167 180.45 403.167 201.917C403.167 223.383 384.383 242.167 362.917 242.167Z" fill="#02D9A0"/>
</svg>
