<svg width="50" height="40" viewBox="0 0 50 40" fill="none" xmlns="http://www.w3.org/2000/svg">
<path d="M2.7354 28.7075C1.22468 26.396 1.87387 23.2974 4.18541 21.7867L31.8056 3.7354C34.1171 2.22468 37.2157 2.87387 38.7264 5.18541L43.2823 12.1564C44.793 14.4679 44.1438 17.5665 41.8323 19.0772L14.2121 37.1285C11.9006 38.6392 8.80203 37.99 7.29131 35.6785L2.7354 28.7075Z" fill="#FFCE1F"/>
<ellipse cx="13.4202" cy="29.1867" rx="2.89395" ry="2.91577" transform="rotate(-33.1668 13.4202 29.1867)" fill="#A88300"/>
<ellipse cx="17.8433" cy="19.3294" rx="2.06711" ry="2.0827" transform="rotate(-33.1668 17.8433 19.3294)" fill="#A88300"/>
<ellipse cx="33.1715" cy="11.7997" rx="3.30737" ry="3.33231" transform="rotate(-33.1668 33.1715 11.7997)" fill="#A88300"/>
<ellipse cx="30.4701" cy="22.0245" rx="2.06711" ry="2.0827" transform="rotate(-33.1668 30.4701 22.0245)" fill="#A88300"/>
<ellipse cx="33" cy="5.5" rx="6" ry="5.5" fill="#CCF3FF"/>
<ellipse cx="33" cy="5.5" rx="6" ry="5.5" fill="#CCF3FF"/>
<ellipse cx="39" cy="6.5" rx="6" ry="5.5" fill="#CCF3FF"/>
<ellipse cx="39" cy="6.5" rx="6" ry="5.5" fill="#8BDCF6"/>
<ellipse cx="44" cy="11.5" rx="6" ry="5.5" fill="#CCF3FF"/>
<ellipse cx="44" cy="11.5" rx="6" ry="5.5" fill="#B0ECFF"/>
<ellipse cx="35" cy="13.5" rx="6" ry="5.5" fill="#CCF3FF"/>
<ellipse cx="35" cy="13.5" rx="6" ry="5.5" fill="#6EDCFF"/>
<ellipse cx="41" cy="16.5" rx="6" ry="5.5" fill="#CCF3FF"/>
<ellipse cx="41" cy="16.5" rx="6" ry="5.5" fill="#D0F4FF"/>
</svg>
